<svg xmlns="http://www.w3.org/2000/svg" viewBox="0 0 64 64">
  <defs>
    <linearGradient id="planet" x1="16" y1="13" x2="49" y2="51">
      <stop offset="0" stop-color="#8cf5df"/>
      <stop offset="0.58" stop-color="#58e0c4"/>
      <stop offset="1" stop-color="#087866"/>
    </linearGradient>
    <linearGradient id="belt" x1="8" y1="39" x2="56" y2="25">
      <stop offset="0" stop-color="#f7c948"/>
      <stop offset="0.55" stop-color="#ffe59a"/>
      <stop offset="1" stop-color="#ff6b6b"/>
    </linearGradient>
  </defs>
  <rect width="64" height="64" rx="16" fill="#080a0d"/>
  <path d="M7.5 38.4c10.9 10.1 35.4 9.3 49.1-2.2" fill="none" stroke="#58e0c4" stroke-width="3.1" stroke-linecap="round" opacity=".82"/>
  <circle cx="32" cy="32" r="18" fill="url(#planet)"/>
  <path d="M13.8 35.9c10.2 5.7 26.7 5.1 37.5-1.5 1.9-1.1 3.2-2.2 4.1-3.2.9 2 .1 4.2-2.4 6-10.3 7.8-34.4 8.4-44 .9-1.9-1.4-2.4-3.1-1.6-4.5 1.5.9 3.5 1.6 6.4 2.3Z" fill="url(#belt)"/>
  <rect x="37.1" y="37.1" width="10" height="5.9" rx="2" fill="#11161b" stroke="#ffe59a" stroke-width="1.7" transform="rotate(-10 42.1 40.05)"/>
  <circle cx="25.7" cy="29" r="1.9" fill="#11161b" opacity=".72"/>
  <circle cx="38.2" cy="29" r="1.9" fill="#11161b" opacity=".72"/>
  <path d="M28 35.7c2.4 1.9 5.7 1.9 8.1 0" fill="none" stroke="#11161b" stroke-linecap="round" stroke-width="2" opacity=".68"/>
  <path d="M51.4 9.7 53.2 13l3.6 1.7-3.6 1.7-1.8 3.4-1.8-3.4-3.6-1.7 3.6-1.7 1.8-3.3Z" fill="#f7c948"/>
</svg>
